<svg width="142" height="49" viewBox="0 0 142 49" fill="none" xmlns="http://www.w3.org/2000/svg"><path opacity=".7" d="M46.253 45v-8.195h.902l4.708 6.622-.407.044v-6.666h1.089V45h-.902l-4.686-6.666.374-.044V45h-1.078Zm11.028.132a2.89 2.89 0 0 1-1.53-.407 2.904 2.904 0 0 1-1.055-1.111 3.31 3.31 0 0 1-.385-1.595c0-.594.125-1.122.374-1.584a2.898 2.898 0 0 1 1.034-1.089c.44-.271.931-.407 1.474-.407.44 0 .829.08 1.166.242.345.154.634.367.869.638.242.264.425.568.55.913.132.337.198.69.198 1.056 0 .08-.007.172-.022.275a3.113 3.113 0 0 1-.033.275h-4.862v-.88h4.268l-.484.396c.066-.381.03-.722-.11-1.023a1.66 1.66 0 0 0-1.54-.979c-.345 0-.66.088-.946.264-.286.176-.51.429-.671.759-.154.323-.216.708-.187 1.155-.03.433.037.814.198 1.144.169.323.403.576.704.759.308.176.642.264 1 .264.397 0 .73-.092 1.002-.275.271-.183.491-.418.66-.704l.858.44c-.117.271-.3.52-.55.748-.242.22-.532.396-.87.528-.33.132-.7.198-1.11.198Zm6.738-.066c-.58 0-1.027-.165-1.342-.495-.308-.33-.462-.796-.462-1.397V40.05h-1.078v-.979h.22c.264 0 .473-.08.627-.242.154-.161.23-.374.23-.638v-.484h1.024v1.364h1.33v.979h-1.33v3.091c0 .198.03.37.088.517a.777.777 0 0 0 .319.352c.146.08.34.121.583.121.051 0 .113-.004.187-.011l.22-.022V45a1.968 1.968 0 0 1-.32.044 2.456 2.456 0 0 1-.296.022ZM67.635 45 65.6 39.071h1.133l1.617 4.961-.396-.011 1.584-4.95h.968l1.584 4.95-.396.011 1.628-4.961h1.122L72.41 45h-.979l-1.562-4.95h.308L68.614 45h-.979Zm10.733.132a3.07 3.07 0 0 1-1.551-.396 3.016 3.016 0 0 1-1.1-1.111 3.128 3.128 0 0 1-.407-1.595c0-.594.132-1.122.396-1.584a3.026 3.026 0 0 1 2.662-1.507c.572 0 1.089.136 1.55.407.463.264.826.627 1.09 1.089.27.462.407.994.407 1.595s-.14 1.137-.418 1.606a3.13 3.13 0 0 1-1.111 1.1c-.455.264-.961.396-1.518.396Zm0-.99c.366 0 .696-.092.99-.275.3-.183.535-.436.704-.759.176-.323.264-.682.264-1.078 0-.403-.088-.759-.264-1.067a1.92 1.92 0 0 0-.704-.748 1.777 1.777 0 0 0-.99-.286 1.85 1.85 0 0 0-1.012.286 2.032 2.032 0 0 0-.704.748 2.113 2.113 0 0 0-.264 1.067c0 .396.088.755.264 1.078.176.323.41.576.704.759.3.183.638.275 1.012.275Zm4.68.858v-5.929h1.002v1.089l-.11-.154c.14-.337.352-.587.638-.748.286-.169.634-.253 1.045-.253h.363v.968h-.517c-.418 0-.755.132-1.012.396-.257.257-.385.623-.385 1.1V45h-1.023Zm4.147 0v-8.327h1.023v5.709l-.419-.099 3.146-3.212h1.31l-2.277 2.387L92.408 45h-1.21l-2.221-3.212.638-.033-1.727 1.804.33-.748V45h-1.023Zm8.756 0v-8.195h5.335v.99h-4.257v2.596h4.037v.99h-4.037v2.629h4.257V45h-5.335Zm6.179 0 2.079-2.97-2.068-2.959h1.232l1.771 2.574h-.627l1.749-2.574h1.243l-2.068 2.959 2.057 2.97h-1.232l-1.749-2.574h.616L103.384 45h-1.254Zm6.589 2.2v-8.129h1.001v1.276l-.132-.253c.22-.352.52-.63.902-.836a2.639 2.639 0 0 1 1.309-.319c.557 0 1.056.136 1.496.407.447.271.799.642 1.056 1.111.256.462.385.99.385 1.584 0 .58-.129 1.104-.385 1.573-.257.47-.609.84-1.056 1.111-.44.271-.943.407-1.507.407-.477 0-.913-.106-1.309-.319a2.22 2.22 0 0 1-.902-.902l.165-.176V47.2h-1.023Zm2.992-3.058c.374 0 .707-.092 1.001-.275.293-.183.52-.433.682-.748a2.3 2.3 0 0 0 .253-1.078c0-.41-.085-.77-.253-1.078a1.874 1.874 0 0 0-.682-.748 1.797 1.797 0 0 0-1.001-.286c-.374 0-.712.092-1.012.275a2.004 2.004 0 0 0-.704.759 2.246 2.246 0 0 0-.253 1.078c0 .396.084.755.253 1.078.176.315.41.565.704.748.3.183.638.275 1.012.275Zm4.666.858v-8.327h1.023V45h-1.023Zm5.727.132a3.07 3.07 0 0 1-1.551-.396 3.014 3.014 0 0 1-1.1-1.111 3.122 3.122 0 0 1-.407-1.595c0-.594.132-1.122.396-1.584a3.025 3.025 0 0 1 2.662-1.507c.572 0 1.089.136 1.551.407.462.264.825.627 1.089 1.089.271.462.407.994.407 1.595s-.14 1.137-.418 1.606a3.133 3.133 0 0 1-1.111 1.1 2.97 2.97 0 0 1-1.518.396Zm0-.99c.366 0 .696-.092.99-.275.3-.183.535-.436.704-.759.176-.323.264-.682.264-1.078 0-.403-.088-.759-.264-1.067a1.927 1.927 0 0 0-.704-.748 1.78 1.78 0 0 0-.99-.286c-.374 0-.712.095-1.012.286a2.027 2.027 0 0 0-.704.748 2.113 2.113 0 0 0-.264 1.067c0 .396.088.755.264 1.078.176.323.41.576.704.759.3.183.638.275 1.012.275Zm4.681.858v-5.929h1.001v1.089l-.11-.154c.139-.337.352-.587.638-.748.286-.169.634-.253 1.045-.253h.363v.968h-.517c-.418 0-.756.132-1.012.396-.257.257-.385.623-.385 1.1V45h-1.023Zm6.873.132a2.891 2.891 0 0 1-1.529-.407 2.908 2.908 0 0 1-1.056-1.111 3.317 3.317 0 0 1-.385-1.595c0-.594.125-1.122.374-1.584a2.905 2.905 0 0 1 1.034-1.089c.44-.271.932-.407 1.474-.407.44 0 .829.08 1.166.242.345.154.635.367.869.638.242.264.426.568.55.913.132.337.198.69.198 1.056 0 .08-.007.172-.022.275a2.902 2.902 0 0 1-.033.275h-4.862v-.88h4.268l-.484.396c.066-.381.03-.722-.11-1.023a1.664 1.664 0 0 0-1.54-.979c-.344 0-.66.088-.946.264a1.79 1.79 0 0 0-.671.759c-.154.323-.216.708-.187 1.155-.029.433.037.814.198 1.144.169.323.404.576.704.759.308.176.642.264 1.001.264.396 0 .73-.092 1.001-.275.272-.183.492-.418.66-.704l.858.44c-.117.271-.3.52-.55.748-.242.22-.531.396-.869.528-.33.132-.7.198-1.111.198Zm4.329-.132v-5.929h1.001v1.089l-.11-.154c.14-.337.352-.587.638-.748.286-.169.635-.253 1.045-.253h.363v.968h-.517c-.418 0-.755.132-1.012.396-.256.257-.385.623-.385 1.1V45h-1.023Z" fill="#DEE1ED"></path><path d="M40.987 13.453c-.014-.256.043-.54.085-.811.072-.384.157-.783.015-1.082-.086-.2-.356-.384-.64-.57-.286-.199-.627-.412-.84-.725-.2-.27-.285-.627-.37-.954-.086-.356-.172-.684-.371-.883-.2-.2-.527-.285-.883-.37-.327-.085-.683-.17-.953-.37-.314-.228-.527-.555-.727-.84-.185-.285-.37-.555-.569-.64-.313-.143-.712-.058-1.082.014-.27.057-.555.113-.811.085-.214-.014-.427-.057-.627-.085a3.973 3.973 0 0 0-.669-.072.955.955 0 0 0-.498.114c-.185.114-.313.385-.427.612l-1.523 3.09c1.295.455 2.59.897 3.914 1.38a3.561 3.561 0 0 1 1.865 1.837c.314.797.57 1.537.869 2.306l.612 1.708 3.06-1.509c.257-.114.499-.256.627-.47.17-.27.1-.683.029-1.152a4.516 4.516 0 0 1-.086-.613ZM21.995 31.179a12.656 12.656 0 0 0-.527-1.367 10.563 10.563 0 0 0-1.594-2.434 7.834 7.834 0 0 0-2.335-1.78c-.384-.185-.84-.341-1.395-.498-.057-.014-.114-.014-.185-.014-.128 0-.27.028-.413.07-.2.058-.598.286-.811.428-1.737 1.125-2.82 1.78-4.613 2.747 0 0-.014.015-.028.015.057 0 .1.014.156.014.214.028.413.043.613.043.17 0 .384-.057.597-.114.27-.071.584-.157.94-.157.256 0 .484.043.712.128.455.214.697.555.897.812l.07.1c.172.241.357.512.542.626.156.1.441.17.74.242l.085.028c.356.1.783.214 1.168.57.37.384.484.825.583 1.181l.029.1c.071.285.142.57.242.726.128.185.384.37.626.54l.1.072c.27.185.598.427.811.869.242.654.1 1.21-.014 1.665-.057.214-.114.427-.114.598 0 .2.029.399.043.598a244.916 244.916 0 0 1 2.377-4.186c.2-.327.555-.84.684-1.153.07-.142.057-.327.014-.47Z" fill="#FFFFFF"></path><path d="M18.422 38.44c.37-.4-.157-1.552-.157-1.994 0-.398.057-.754.085-1.082.043-.327.043-.64-.085-.868-.114-.2-.384-.385-.67-.57-.284-.185-.626-.384-.882-.726-.27-.37-.327-.754-.413-1.082-.085-.327-.185-.612-.356-.768-.156-.171-.455-.27-.768-.356-.328-.1-.698-.157-1.082-.413-.342-.27-.541-.598-.726-.883-.3-.455-.37-.555-.57-.669-.299-.17-.64-.142-.868-.085a4.84 4.84 0 0 1-1.01.114c-.499 0-1.71-.541-2.065-.185-.356.356.157 1.551.17 1.993 0 .413-.042.783-.085 1.082-.057.227-.085.57.086.868.114.2.228.27.669.57.285.184.626.384.883.725.27.37.327.755.412 1.082.086.328.185.613.356.77.157.17.456.27.769.355.327.1.698.157 1.082.413.342.27.54.598.726.883.185.284.356.555.57.669.227.128.54.128.868.085.327-.029.683-.114 1.082-.085.583.014 1.623.54 1.979.156ZM38.055 21.356c-.014-.27-.228-.684-.342-1.068l-1.666-4.585c-.27-.754-.54-1.551-.811-2.263a2.973 2.973 0 0 0-1.51-1.524l-4.54-1.708-2.279-.868c-.384-.129-.769-.342-1.096-.356a1.22 1.22 0 0 0-.954.356c-2.335 2.263-4.67 4.527-6.933 6.848a196.431 196.431 0 0 0-3.389 3.502l-.441.47s1.395.526 1.88.726c.982.384 1.95.783 2.918 1.196.968.413 1.922.84 2.89 1.31.982.484 1.836 1.267 2.264 2.249-.598-.755-1.538-1.253-2.492-1.623a43.37 43.37 0 0 0-2.99-1.01c-1.01-.3-2.007-.613-3.004-.94-.498-.157-.996-.328-1.495-.499-.327-.114-.583-.057-.811.143-.214.199-.328.47-.27.754.014.029.014.071.028.114l.057.185.128.37.256.74c.157.47.313.954.47 1.424.299-.17.584-.327.883-.484.199-.114.484-.256.769-.299.284-.042.555-.057.854.057.47.2.94.399 1.395.627.911.455 1.751 1.039 2.52 1.722a8.611 8.611 0 0 1 1.908 2.435c.242.455.441.954.612 1.424.114.313.114.64.028.968a1.693 1.693 0 0 1-.199.427l-.185.327c-.27.442-.541.883-.812 1.31.67.27 1.353.513 2.036.769.385.128.755.327 1.14.356.398.028.797-.128 1.081-.413a350.896 350.896 0 0 0 6.763-7.033c1.11-1.182 2.25-2.35 3.374-3.517l1.708-1.737c.157-.256.271-.57.257-.882Zm-8.642 7.303-3.901 4.257 1.88-7.318 2.334-.754.37-3.318L32.374 21l2.107-7.46 1.694 7.63-6.762 7.49ZM60.564 32.617c-.968 0-1.85-.17-2.62-.512a4.324 4.324 0 0 1-1.836-1.495c-.455-.655-.683-1.452-.683-2.392s.228-1.723.683-2.363c.456-.641 1.082-1.11 1.88-1.438.797-.328 1.708-.484 2.747-.484h3.745v-.77c0-.64-.2-1.167-.613-1.58-.398-.412-1.053-.626-1.936-.626-.868 0-1.509.2-1.936.598-.427.399-.698.911-.826 1.538l-3.203-1.082a5.353 5.353 0 0 1 1.068-1.922c.484-.584 1.139-1.054 1.964-1.41.812-.356 1.823-.54 2.99-.54 1.808 0 3.232.455 4.271 1.352 1.054.897 1.566 2.206 1.566 3.915v5.097c0 .555.257.825.77.825h1.095v2.862h-2.32c-.684 0-1.239-.17-1.68-.498-.442-.328-.655-.769-.655-1.324v-.029h-.527c-.071.214-.242.513-.498.869-.257.356-.655.669-1.21.954-.527.313-1.282.455-2.236.455Zm.598-2.819c.968 0 1.766-.27 2.392-.811.612-.541.926-1.267.926-2.164v-.27h-3.503c-.64 0-1.153.142-1.523.412-.37.27-.555.655-.555 1.153 0 .499.199.897.583 1.21.385.314.954.47 1.68.47ZM76.168 32.233c-.897 0-1.637-.285-2.192-.84-.556-.556-.84-1.31-.84-2.25v-7.716h-3.417v-2.862h3.417v-4.243h3.474v4.243h3.744v2.862h-3.745v7.118c0 .556.257.826.77.826h2.647v2.862h-3.858ZM89.067 32.617c-1.367 0-2.563-.284-3.602-.868a6.072 6.072 0 0 1-2.42-2.449c-.585-1.053-.87-2.306-.87-3.744v-.328c0-1.438.285-2.676.855-3.73.57-1.053 1.367-1.88 2.406-2.449 1.025-.583 2.221-.868 3.588-.868 1.338 0 2.505.299 3.502.897.997.598 1.766 1.424 2.32 2.477.556 1.054.826 2.278.826 3.688v1.181h-9.951c.042.94.384 1.694 1.053 2.292.655.584 1.467.883 2.42.883.969 0 1.695-.213 2.15-.64a4.687 4.687 0 0 0 1.054-1.41l2.847 1.495c-.256.484-.626.996-1.11 1.552-.484.555-1.14 1.039-1.95 1.438-.84.384-1.88.583-3.118.583ZM85.72 23.82h6.392c-.07-.797-.384-1.424-.954-1.908-.555-.484-1.295-.712-2.192-.712-.94 0-1.68.242-2.235.712-.541.484-.883 1.11-1.011 1.908ZM103.902 32.617a6.028 6.028 0 0 1-3.047-.811c-.954-.541-1.709-1.339-2.278-2.392-.57-1.054-.854-2.32-.854-3.802v-.44c0-1.496.284-2.763.854-3.802.57-1.054 1.324-1.837 2.264-2.392a6.039 6.039 0 0 1 3.061-.811c.825 0 1.523.1 2.078.284.555.2 1.011.442 1.367.726.356.3.612.613.797.94h.498v-6.165h3.474v18.28h-3.417v-1.65h-.498c-.313.512-.797.982-1.452 1.409-.655.413-1.595.626-2.847.626Zm1.039-3.032c1.068 0 1.965-.342 2.676-1.04.712-.683 1.082-1.694 1.082-3.018v-.27c0-1.324-.356-2.335-1.067-3.019-.712-.683-1.609-1.039-2.691-1.039-1.068 0-1.965.342-2.677 1.04-.712.683-1.082 1.694-1.082 3.018v.27c0 1.324.356 2.335 1.082 3.018.726.698 1.609 1.04 2.677 1.04ZM52.678 18.494l-3.147.057a3.418 3.418 0 0 0-3.417 3.417v10.265h3.474v-7.774c0-.968-.057-2.036.513-2.506.57-.47 1.637-.355 2.52-.355h1.708v-3.09h-1.651v-.014Z" fill="#FFFFFF"></path></svg>